<?xml version="1.0" encoding="UTF-8" standalone="no"?>
<!-- Created with Inkscape (http://www.inkscape.org/) -->

<svg
   xmlns:dc="http://purl.org/dc/elements/1.1/"
   xmlns:cc="http://creativecommons.org/ns#"
   xmlns:rdf="http://www.w3.org/1999/02/22-rdf-syntax-ns#"
   xmlns:svg="http://www.w3.org/2000/svg"
   xmlns="http://www.w3.org/2000/svg"
   xmlns:sodipodi="http://sodipodi.sourceforge.net/DTD/sodipodi-0.dtd"
   xmlns:inkscape="http://www.inkscape.org/namespaces/inkscape"
   width="123mm"
   height="151mm"
   viewBox="0 0 123 151"
   version="1.1"
   id="svg8"
   inkscape:version="0.92.4 (unknown)"
   sodipodi:docname="chys-bg.svg">
  <defs
     id="defs2">
    <filter
       inkscape:collect="always"
       style="color-interpolation-filters:sRGB"
       id="filter1973"
       x="-0.0053644064"
       width="1.0107288"
       y="-0.0068064523"
       height="1.0136129">
      <feGaussianBlur
         inkscape:collect="always"
         stdDeviation="0.099691213"
         id="feGaussianBlur1975" />
    </filter>
  </defs>
  <sodipodi:namedview
     id="base"
     pagecolor="#ffffff"
     bordercolor="#666666"
     borderopacity="1.0"
     inkscape:pageopacity="0.0"
     inkscape:pageshadow="2"
     inkscape:zoom="0.32625"
     inkscape:cx="-128.61928"
     inkscape:cy="708.91937"
     inkscape:document-units="mm"
     inkscape:current-layer="layer1"
     showgrid="false"
     inkscape:window-width="1366"
     inkscape:window-height="713"
     inkscape:window-x="0"
     inkscape:window-y="27"
     inkscape:window-maximized="1" />
  <metadata
     id="metadata5">
    <rdf:RDF>
      <cc:Work
         rdf:about="">
        <dc:format>image/svg+xml</dc:format>
        <dc:type
           rdf:resource="http://purl.org/dc/dcmitype/StillImage" />
        <dc:title></dc:title>
      </cc:Work>
    </rdf:RDF>
  </metadata>
  <g
     inkscape:label="Layer 1"
     inkscape:groupmode="layer"
     id="layer1"
     transform="translate(0,-146)">
    <path
       style="opacity:1;vector-effect:none;fill:#000000;fill-opacity:1;stroke:#000000;stroke-width:1;stroke-linecap:butt;stroke-linejoin:miter;stroke-miterlimit:4;stroke-dasharray:none;stroke-dashoffset:0;stroke-opacity:1"
       d="m 13.595874,279.24725 h 23.529015 v -2.19227 l -23.529015,0.0567 z"
       id="path2175"
       inkscape:connector-curvature="0"
       sodipodi:nodetypes="ccccc" />
    <path
       style="opacity:1;vector-effect:none;fill:none;fill-opacity:1;stroke:#ffd166;stroke-width:2;stroke-linecap:butt;stroke-linejoin:miter;stroke-miterlimit:4;stroke-dasharray:none;stroke-dashoffset:0;stroke-opacity:1;filter:url(#filter1973)"
       d="m 65.859332,188.17436 -21.922619,37.60863 h 44.60119 z"
       id="path815"
       inkscape:connector-curvature="0"
       sodipodi:nodetypes="cccc"
       transform="matrix(0.57993363,0,0,0.6317879,-18.912261,99.866944)" />
    <path
       style="opacity:1;vector-effect:none;fill:none;fill-opacity:1;stroke:#ff5964;stroke-width:1.48710418;stroke-linecap:butt;stroke-linejoin:miter;stroke-miterlimit:4;stroke-dasharray:none;stroke-dashoffset:0;stroke-opacity:1"
       d="m 34.110867,188.59459 c 1.340146,-1.4479 1.365136,-2.76434 1.057399,-4.04753 -1.472421,-0.078 -2.903743,0.0255 -4.10465,1.14608 l -10.278038,9.77589 -10.026876,-9.6407 c -1.3575069,-1.40557 -2.330701,-1.30353 -4.5684321,-1.2507 -0.1498691,2.56434 0.888844,3.82489 1.3524386,4.08533 l 10.2230285,9.73389 -10.0336216,9.72782 c -0.3746923,1.01454 -1.3339652,1.33164 -0.7173408,3.52892 1.1872898,0.44183 2.4913779,0.21463 3.9111444,-0.67513 l 9.93533,-9.82141 10.27263,9.87469 c 0.09435,0.91152 1.752589,0.82126 3.428059,0.64326 0.228876,-1.39985 0.507129,-2.81002 -0.752268,-3.89864 l -9.977738,-9.5939 z"
       id="path2012"
       inkscape:connector-curvature="0"
       sodipodi:nodetypes="ccccccccccccccccc" />
    <ellipse
       style="opacity:1;fill:none;fill-opacity:1;stroke:#35a7ff;stroke-width:2.167696;stroke-linejoin:round;stroke-miterlimit:4;stroke-dasharray:none;stroke-dashoffset:75.59055328;stroke-opacity:1;paint-order:stroke markers fill"
       id="path2034"
       cx="59.242916"
       cy="200.81145"
       rx="13.914907"
       ry="14.481871" />
    <rect
       style="opacity:1;fill:none;fill-opacity:1;stroke:#dc35ff;stroke-width:1.7579;stroke-linejoin:round;stroke-miterlimit:4;stroke-dasharray:none;stroke-dashoffset:75.59055328;stroke-opacity:1;paint-order:stroke markers fill"
       id="rect2036"
       width="25.320448"
       height="22.322588"
       x="45.739601"
       y="251.67731" />
    <path
       style="opacity:1;vector-effect:none;fill:#008000;fill-opacity:1;stroke:none;stroke-width:0.76352704;stroke-linecap:butt;stroke-linejoin:miter;stroke-miterlimit:4;stroke-dasharray:none;stroke-dashoffset:0;stroke-opacity:0.94117647"
       d="m 94.389319,204.13545 c -1.670428,-0.71007 -3.434879,-1.0448 -5.346308,-0.79266 -5.410611,0.47268 -5.784037,2.37133 -6.061743,3.49191 0.444213,2.76692 2.40285,3.12095 3.980845,3.61232 4.426417,0.33726 5.703849,0.24733 7.328376,-0.42144 1.160972,-0.35632 2.031756,-1.21302 2.714218,-2.04698 l 0.399974,-13.19021 10.728289,-0.055 v -4.15417 H 94.471433 Z"
       id="path2106"
       inkscape:connector-curvature="0"
       sodipodi:nodetypes="ccccccccccc" />
    <path
       style="opacity:1;vector-effect:none;fill:none;fill-opacity:1;stroke:#003da5;stroke-width:0.66500002;stroke-linecap:butt;stroke-linejoin:miter;stroke-miterlimit:4;stroke-dasharray:none;stroke-dashoffset:0;stroke-opacity:1"
       d="m 49.773991,167.03141 11.82822,15.46108 9.52464,2.30716 0.3416,-8.99578 -12.2817,-16.06592 z"
       id="path2158"
       inkscape:connector-curvature="0"
       sodipodi:nodetypes="cccccc" />
    <path
       style="opacity:1;vector-effect:none;fill:none;fill-opacity:1;stroke:#003da5;stroke-width:0.76499999;stroke-linecap:butt;stroke-linejoin:miter;stroke-miterlimit:4;stroke-dasharray:none;stroke-dashoffset:0;stroke-opacity:1"
       d="m 56.382771,156.52848 -9.41276,7.29346 -5.37121,-6.19482 10.0226,-7.21628 4.76137,6.11764"
       inkscape:connector-curvature="0"
       id="path2171" />
    <path
       style="opacity:1;vector-effect:none;fill:none;fill-opacity:1;stroke:#000000;stroke-width:2.0999999;stroke-linecap:butt;stroke-linejoin:miter;stroke-miterlimit:4;stroke-dasharray:none;stroke-dashoffset:0;stroke-opacity:1"
       d="m 7.6805423,255.51032 12.8511907,8.78795 -12.7566957,9.63839 z"
       id="path2173"
       inkscape:connector-curvature="0"
       sodipodi:nodetypes="cccc" />
    <path
       style="opacity:1;vector-effect:none;fill:none;fill-opacity:1;stroke:#cd001a;stroke-width:1.29999995;stroke-linecap:butt;stroke-linejoin:miter;stroke-miterlimit:4;stroke-dasharray:none;stroke-dashoffset:0;stroke-opacity:1"
       d="m 26.521808,181.46073 7.9375,-6.4256 -5.612947,-0.62367 -4.59241,-20.16502 -17.0089272,15.11905 19.4846702,7.16264 z"
       id="path2177"
       inkscape:connector-curvature="0"
       sodipodi:nodetypes="ccccccc" />
    <path
       style="opacity:1;vector-effect:none;fill:#00aa13;fill-opacity:1;stroke:#00aa13;stroke-width:0.49640235px;stroke-linecap:butt;stroke-linejoin:miter;stroke-miterlimit:4;stroke-dasharray:none;stroke-dashoffset:0;stroke-opacity:1"
       d="m 58.362435,223.00153 5.36207,4.34512 -4.95479,14.97941 -14.08845,1.41386 7.50872,-8.02146 -0.57708,-0.29558 -7.70782,7.6881 0.88479,-13.33865 z"
       id="path2219"
       inkscape:connector-curvature="0"
       sodipodi:nodetypes="ccccccccc" />
    <path
       style="opacity:1;vector-effect:none;fill:#008000;fill-opacity:1;stroke:none;stroke-width:0.49640235px;stroke-linecap:butt;stroke-linejoin:miter;stroke-miterlimit:4;stroke-dasharray:none;stroke-dashoffset:0;stroke-opacity:1"
       d="m 59.391705,222.04389 5.36207,4.34511 4.21482,-3.01553 -5.32339,-5.26193 z"
       id="path2221"
       inkscape:connector-curvature="0"
       sodipodi:nodetypes="ccccc" />
    <path
       style="opacity:1;vector-effect:none;fill:#008ad8;fill-opacity:1;stroke:none;stroke-width:0.26614317px;stroke-linecap:butt;stroke-linejoin:miter;stroke-miterlimit:4;stroke-dasharray:none;stroke-dashoffset:0;stroke-opacity:1"
       d="m 94.361971,170.34176 c -3.06753,0.22484 -3.71629,-0.0474 -6.56093,2.03883 -0.09652,2.13236 0.555,3.99782 2.63283,5.23315 -0.18533,1.15796 -0.61065,2.11733 -7.433714,1.60445 3.98101,3.56378 11.388424,6.15663 17.546153,1.03893 1.77249,-2.44467 1.33722,-4.85349 0.12675,-6.72459 -1.806139,-1.19514 -4.936039,-2.33723 -6.311059,-3.19077 z"
       id="path2225"
       inkscape:connector-curvature="0"
       sodipodi:nodetypes="ccccccc" />
    <path
       style="opacity:1;vector-effect:none;fill:#008ad8;fill-opacity:1;stroke:none;stroke-width:0.3807672px;stroke-linecap:butt;stroke-linejoin:miter;stroke-miterlimit:4;stroke-dasharray:none;stroke-dashoffset:0;stroke-opacity:1"
       d="m 95.217541,169.6639 6.779669,3.35156 11.06765,-17.81384 -6.66378,-3.44339 z"
       id="path2227"
       inkscape:connector-curvature="0"
       sodipodi:nodetypes="ccccc" />
    <g
       id="g2328"
       transform="matrix(0.33832786,0,0,0.38876803,81.530379,222.01246)"
       style="fill:#0000ff">
      <g
         id="g2270"
         style="fill:#0000ff">
	<g
   id="g2268"
   style="fill:#0000ff">
		<path
   id="path2264"
   d="M 82.479,16.947 V 8.15 c 0,-1.104 -0.896,-2 -2,-2 H 31.227 c -10,0 -17.458,2.146 -22.799,6.562 C 2.836,17.337 0,23.889 0,32.185 c 0,9.107 2.743,15.859 8.387,20.643 5.622,4.766 13.788,7.182 24.271,7.182 h 9.119 v 29.036 c 0,1.104 0.896,2 2,2 h 6.234 c 1.104,0 2,-0.896 2,-2 V 18.947 h 8.035 v 70.098 c 0,1.104 0.896,2 2,2 h 6.037 c 1.104,0 2,-0.896 2,-2 V 18.947 h 10.395 c 1.105,0 2.001,-0.896 2.001,-2 z"
   inkscape:connector-curvature="0"
   style="fill:#0000ff" />

		
	</g>

</g>
      <g
         id="g2272"
         style="fill:#0000ff">
</g>
      <g
         id="g2274"
         style="fill:#0000ff">
</g>
      <g
         id="g2276"
         style="fill:#0000ff">
</g>
      <g
         id="g2278"
         style="fill:#0000ff">
</g>
      <g
         id="g2280"
         style="fill:#0000ff">
</g>
      <g
         id="g2282"
         style="fill:#0000ff">
</g>
      <g
         id="g2284"
         style="fill:#0000ff">
</g>
      <g
         id="g2286"
         style="fill:#0000ff">
</g>
      <g
         id="g2288"
         style="fill:#0000ff">
</g>
      <g
         id="g2290"
         style="fill:#0000ff">
</g>
      <g
         id="g2292"
         style="fill:#0000ff">
</g>
      <g
         id="g2294"
         style="fill:#0000ff">
</g>
      <g
         id="g2296"
         style="fill:#0000ff">
</g>
      <g
         id="g2298"
         style="fill:#0000ff">
</g>
      <g
         id="g2300"
         style="fill:#0000ff">
</g>
    </g>
  </g>
</svg>
